<svg version="1.1" xmlns="http://www.w3.org/2000/svg" xmlns:xlink="http://www.w3.org/1999/xlink" width="78.71255" height="50.6519" viewBox="0,0,78.71255,50.6519"><g transform="translate(-200.64372,-154.67405)"><g data-paper-data="{&quot;isPaintingLayer&quot;:true}" fill-rule="nonzero" stroke-width="0" stroke-linecap="butt" stroke-linejoin="miter" stroke-miterlimit="10" stroke-dasharray="" stroke-dashoffset="0" style="mix-blend-mode: normal"><path d="M231.49384,176.24025c-0.2033,0.1963 -0.4235,0.3132 -0.645,0.3648c-0.2027,0.3779 -0.5909,0.64 -1.1696,0.5962c-6.7465,-0.5079 -13.5658,-2.7095 -19.3383,-6.2476c-2.2686,-1.3897 -4.6954,-2.9797 -6.3273,-5.1183c-1.0746,-1.4092 -1.9506,-2.983 -2.6073,-4.6285c-0.5853,-1.4677 -1.2212,-3.5553 -0.2924,-5.0269c1.1596,-1.8374 3.4862,-1.6885 5.3329,-1.1426c4.2417,1.2539 5.1094,6.628 8.1391,9.4341c0.276,-1.2073 0.3107,-2.5635 0.5587,-3.6927c0.321,-1.4609 1.671,-3.4543 3.272,-1.8985c0.7364,0.7148 1.1221,1.7827 1.4775,2.7193c0.6064,1.5971 0.454,2.768 0.3632,4.4166c-0.0611,1.104 1.4631,2.2136 2.0503,0.9346c0.1255,-0.2729 0.2222,-0.5587 0.3032,-0.8477c0.0198,-0.0683 0.0631,-0.5562 0.1036,-0.6212c-0.0611,-0.2099 -0.1713,-0.6089 -0.2196,-0.7647c-0.5126,-1.6527 -1.4253,-4.3955 0.7794,-5.2382c2.6781,-1.0246 4.1811,1.8984 4.4819,4.0184c0.1968,1.3873 0.3112,2.7656 0.4498,4.1587c0.1385,1.3964 0.5337,2.356 1.6918,3.1318c1.9954,1.3356 3.8219,3.2974 1.5961,5.4524z" fill="#010101" stroke="none"/><path d="M250.10184,170.78785c1.1582,-0.7758 1.5539,-1.7354 1.6924,-3.1318c0.1386,-1.3931 0.253,-2.7714 0.4501,-4.1587c0.3008,-2.12 1.8027,-5.043 4.4805,-4.0184c2.205,0.8427 1.292,3.5855 0.7794,5.2382c-0.0477,0.1558 -0.1582,0.5548 -0.2196,0.7647c0.0411,0.065 0.085,0.5529 0.1036,0.6212c0.0811,0.289 0.1777,0.5748 0.3037,0.8477c0.587,1.279 2.1114,0.1694 2.0509,-0.9346c-0.0919,-1.6486 -0.2441,-2.8195 0.3632,-4.4166c0.3546,-0.9366 0.7403,-2.0045 1.4767,-2.7193c1.6016,-1.5558 2.951,0.4376 3.2734,1.8985c0.248,1.1292 0.2832,2.4854 0.5587,3.6927c3.0294,-2.8061 3.8965,-8.1802 8.1388,-9.4341c1.8456,-0.5459 4.1739,-0.6948 5.3321,1.1426c0.9296,1.4716 0.2929,3.5592 -0.293,5.0269c-0.6561,1.6455 -1.5313,3.2193 -2.6073,4.6285c-1.6308,2.1386 -4.0587,3.7286 -6.3262,5.1183c-5.7724,3.5381 -12.5917,5.7397 -19.3377,6.2476c-0.5801,0.0438 -0.9669,-0.2183 -1.1699,-0.5962c-0.2226,-0.0516 -0.4414,-0.1685 -0.6444,-0.3648c-2.2267,-2.155 -0.4004,-4.1168 1.5946,-5.4524z" fill="#010101" stroke="none"/><path d="M256.86454,193.17515c0,3.3523 -1.872,6.3906 -4.8956,8.5897c-3.0235,2.1997 -7.1991,3.5611 -11.8076,3.5611c-4.6085,0 -8.7847,-1.3614 -11.8082,-3.5611c-3.0241,-2.1991 -4.8956,-5.2371 -4.8956,-8.5897c0,-3.078 1.5907,-5.8833 4.1903,-8.0258c-0.0444,-0.5956 -0.0689,-1.1998 -0.0689,-1.8115c0,-4.4458 1.2134,-8.4995 3.2066,-11.5702c-0.9996,-0.1777 -2.0631,-0.7261 -2.9606,-1.6114c-1.8276,-1.802 -2.2771,-4.3088 -1.0043,-5.5995c1.2726,-1.2911 3.7858,-0.8766 5.6128,0.9258c0.8267,0.815 1.3681,1.774 1.5991,2.6998c1.8135,-1.3984 3.903,-2.1986 6.1285,-2.1986c2.1231,0 4.122,0.7286 5.8769,2.0098c0.2549,-0.8661 0.7761,-1.751 1.5477,-2.5107c1.8262,-1.8021 4.3397,-2.2167 5.6123,-0.9258c1.2725,1.2904 0.8233,3.7972 -1.0038,5.5995c-0.8183,0.8066 -1.7735,1.3331 -2.6934,1.5547c2.0148,3.0771 3.2412,7.1542 3.2412,11.6269c0,0.6117 -0.0244,1.2159 -0.0694,1.8115c2.5996,2.1428 4.1915,4.9475 4.192,8.0255z" fill="#764e2a" stroke="#000000"/><path d="M235.09934,175.19532c0.4385,0 0.8364,0.1944 1.1241,0.5087c0.2879,0.314 0.4662,0.748 0.4662,1.227c0,0.4782 -0.1783,0.9127 -0.4662,1.2262c-0.2877,0.3149 -0.6856,0.5087 -1.1241,0.5087c-0.4395,0 -0.8369,-0.1944 -1.1251,-0.5087c-0.2876,-0.314 -0.4659,-0.748 -0.4659,-1.2262c0,-0.479 0.1783,-0.913 0.4659,-1.227c0.288,-0.3143 0.6856,-0.5087 1.1251,-0.5087z" fill="#010101" stroke="none"/><path d="M245.94604,175.19532c0.4384,0 0.8369,0.1944 1.124,0.5087c0.289,0.314 0.4667,0.748 0.4667,1.227c0,0.4782 -0.1777,0.9127 -0.4667,1.2262c-0.2871,0.3149 -0.6856,0.5087 -1.124,0.5087c-0.4385,0 -0.8369,-0.1944 -1.124,-0.5087c-0.2891,-0.314 -0.4668,-0.748 -0.4668,-1.2262c0,-0.479 0.1777,-0.913 0.4668,-1.227c0.2871,-0.3143 0.6855,-0.5087 1.124,-0.5087z" fill="#010101" stroke="none"/><path d="M252.81894,200.69275c0,0.1389 -0.0059,0.276 -0.0136,0.4132c-3.0636,2.5795 -7.5899,4.2147 -12.6446,4.2147c-5.0541,0 -9.581,-1.6346 -12.644,-4.2147c-0.0072,-0.1372 -0.0136,-0.2746 -0.0136,-0.4132c0,-5.2824 5.667,-9.564 12.6576,-9.564c6.9912,0 12.6582,4.2816 12.6582,9.564z" fill="#c2b59c" stroke="none"/><path d="M240.16074,184.45122c1.0382,0 1.9795,0.4698 2.6612,1.2289c0.6817,0.7592 1.1026,1.8076 1.1026,2.965c0,1.1573 -0.4209,2.2055 -1.1026,2.9649c-0.6817,0.7597 -1.623,1.229 -2.6612,1.229c-1.0382,0 -1.9789,-0.4698 -2.6606,-1.229c-0.6811,-0.7591 -1.1029,-1.8076 -1.1029,-2.9649c0,-1.1574 0.4218,-2.2056 1.1029,-2.965c0.6817,-0.7591 1.6224,-1.2289 2.6606,-1.2289z" fill="#ec2227" stroke="#ed1c24"/><path d="M248.04934,198.04842c0,2.6117 -3.5322,4.7281 -7.8886,4.7281c-4.3569,0 -7.8886,-2.1161 -7.8886,-4.7281c0,-2.6121 3.5317,-2.2311 7.8886,-2.2311c4.3564,0 7.8886,-0.3807 7.8886,2.2311z" fill="#ffffff" stroke="#010101"/></g></g></svg>